FFmpeg version SVN-r25716, Copyright (c) 2000-2010 the FFmpeg developers  built on Nov 10 2010 12:23:18 with gcc 4.1.2 20080704 (Red Hat 4.1.2-48)  configuration: --enable-libmp3lame --enable-shared --disable-mmx --arch=x86_64  libavutil     50.33. 0 / 50.33. 0  libavcore      0.12. 1 /  0.12. 1  libavcodec    52.94. 4 / 52.94. 4  libavformat   52.84. 0 / 52.84. 0  libavdevice   52. 2. 2 / 52. 2. 2  libavfilter    1.59. 0 /  1.59. 0  libswscale     0.12. 0 /  0.12. 0[mpegvideo @ 0x1488c4c0] Estimating duration from bitrate, this may be inaccurateInput #0, mpegvideo, from '/RAID10/data/converted_video_files/31940.mpeg':  Duration: 00:00:00.02, bitrate: 104855 kb/s    Stream #0.0: Video: mpeg1video, yuv420p, 640x512 [PAR 1:1 DAR 5:4], 104857 kb/s, 25 fps, 25 tbr, 1200k tbn, 25 tbc[buffer @ 0x1488edf0] w:640 h:512 pixfmt:yuv420pOutput #0, flv, to '/RAID10/data/converted_video_files/31940.flv':  Metadata:    encoder         : Lavf52.84.0    Stream #0.0: Video: flv, yuv420p, 640x512 [PAR 1:1 DAR 5:4], q=2-31, 600 kb/s, 1k tbn, 24 tbcStream mapping:  Stream #0.0 -> #0.0Press [q] to stop encodingframe=   49 fps=  0 q=2.4 size=     217kB time=2.08 bitrate= 853.8kbits/s dup=0 drop=2    frame=  103 fps=100 q=5.1 size=     451kB time=4.33 bitrate= 852.4kbits/s dup=0 drop=4    frame=  117 fps=100 q=5.3 Lsize=     509kB time=4.92 bitrate= 848.8kbits/s dup=0 drop=5    video:507kB audio:0kB global headers:0kB muxing overhead 0.400678%